Coordinates
version=1
nRows=11
nColumns=40
inDegrees=yes

Units are S.I. units (second, meters, Newtons, ...)
Angles are in degrees.

endheader
time	pelvis_tilt	pelvis_list	pelvis_rotation	pelvis_tx	pelvis_ty	pelvis_tz	hip_flexion_r	hip_adduction_r	hip_rotation_r	knee_angle_r	knee_angle_r_beta	ankle_angle_r	subtalar_angle_r	mtp_angle_r	hip_flexion_l	hip_adduction_l	hip_rotation_l	knee_angle_l	knee_angle_l_beta	ankle_angle_l	subtalar_angle_l	mtp_angle_l	lumbar_extension	lumbar_bending	lumbar_rotation	arm_flex_r	arm_add_r	arm_rot_r	elbow_flex_r	pro_sup_r	wrist_flex_r	wrist_dev_r	arm_flex_l	arm_add_l	arm_rot_l	elbow_flex_l	pro_sup_l	wrist_flex_l	wrist_dev_l
      3.20000000	    -12.26939122	     -4.03297093	      1.90371633	     -0.99356117	      0.94219424	      0.35367878	     41.76807202	      4.20654742	     -9.29755128	     33.82025954	     33.82025954	      4.99353156	      0.00000000	      0.00000000	      3.10750107	     -9.52173627	      0.43711356	    102.66622081	    102.66622081	    -12.82711612	      0.00000000	      0.00000000	    -24.91112324	      9.94344837	      0.17115025	    -31.46915155	    -22.82514174	    -26.33162281	     97.04631810	     79.55626585	      0.00000000	      0.00000000	     -5.52083981	    -23.75707290	      5.16978512	     96.19931492	     80.34470843	      0.00000000	      0.00000000
      3.20500000	    -12.24767074	     -4.26113709	      1.75805178	     -0.96582580	      0.94252795	      0.35441628	     40.87777341	      4.60711520	     -9.18799123	     35.87574338	     35.87574338	      7.67811409	      0.00000000	      0.00000000	      5.62344584	     -9.92345505	      1.09198438	    105.52748758	    105.52748758	    -12.41397388	      0.00000000	      0.00000000	    -25.06093525	      9.82794186	      0.26867923	    -28.35409909	    -23.78909832	    -24.24509529	     97.10517117	     73.93796423	      0.00000000	      0.00000000	     -6.52924673	    -22.39720321	      4.49926908	     92.58223332	     74.58712985	      0.00000000	      0.00000000
      3.21000000	    -12.18396406	     -4.39175696	      1.62966585	     -0.93801957	      0.94340363	      0.35515523	     39.75754023	      4.93717876	     -8.94068642	     37.60420438	     37.60420438	     10.05634836	      0.00000000	      0.00000000	      8.17024234	    -10.16938385	      1.79967273	    108.06582769	    108.06582769	    -12.05423281	      0.00000000	      0.00000000	    -25.22055239	      9.60864449	      0.27886844	    -25.17372553	    -24.57741142	    -22.00288586	     97.39163346	     65.31441022	      0.00000000	      0.00000000	     -7.49554912	    -21.13844978	      3.83756357	     89.23409580	     64.83176419	      0.00000000	      0.00000000
      3.21500000	    -12.08965613	     -4.43275170	      1.48934482	     -0.91009640	      0.94472448	      0.35592859	     38.42314649	      5.21493740	     -8.57842374	     38.99970814	     38.99970814	     12.10375774	      0.00000000	      0.00000000	     10.72935394	    -10.28157102	      2.48637199	    110.27684918	    110.27684918	    -11.70383403	      0.00000000	      0.00000000	    -25.37542477	      9.28721381	      0.25171365	    -21.98784449	    -25.15504126	    -19.92399393	     97.80238090	     57.21966441	      0.00000000	      0.00000000	     -8.40218000	    -19.97035058	      2.97633488	     86.00147464	     55.06406687	      0.00000000	      0.00000000
      3.22000000	    -11.96949092	     -4.39931619	      1.31580738	     -0.88202453	      0.94640532	      0.35676057	     36.89062856	      5.45446781	     -8.12055617	     40.07764758	     40.07764758	     13.80745421	      0.00000000	      0.00000000	     13.27770460	    -10.29367905	      3.09570852	    112.16203057	    112.16203057	    -11.32660461	      0.00000000	      0.00000000	    -25.52102321	      8.87286701	      0.24477347	    -18.83967799	    -25.49492685	    -18.43536606	     97.85440621	     57.25419020	      0.00000000	      0.00000000	     -9.19796588	    -18.87482408	      1.66950321	     82.23495430	     54.70129509	      0.00000000	      0.00000000
      3.22500000	    -11.82153279	     -4.30654115	      1.09549894	     -0.85378408	      0.94838488	      0.35767025	     35.17366732	      5.66388263	     -7.57836135	     40.86499641	     40.86499641	     15.15882220	      0.00000000	      0.00000000	     15.78894111	    -10.23962450	      3.58960806	    113.72527606	    113.72527606	    -10.89933881	      0.00000000	      0.00000000	    -25.64509608	      8.37299002	      0.30093748	    -15.90153049	    -25.65661419	    -17.14908317	     98.10077227	     57.27832764	      0.00000000	      0.00000000	     -9.95664867	    -17.90211656	      0.33172883	     78.59148034	     54.33908148	      0.00000000	      0.00000000
      3.23000000	    -11.64037122	     -4.16615326	      0.82333437	     -0.82536692	      0.95062378	      0.35867076	     33.28487821	      5.84469240	     -6.95992696	     41.39086891	     41.39086891	     16.15012064	      0.00000000	      0.00000000	     18.23795061	    -10.14725525	      3.94840268	    114.97339736	    114.97339736	    -10.41053216	      0.00000000	      0.00000000	    -25.74940274	      7.79410260	      0.44281274	    -13.27063496	    -25.69239309	    -15.85338678	     98.91572148	     52.16282993	      0.00000000	      0.00000000	    -10.73204852	    -17.06492286	     -0.85306600	     75.49925537	     48.70487444	      0.00000000	      0.00000000
      3.23500000	    -11.42225087	     -3.98712684	      0.50075208	     -0.79677685	      0.95309470	      0.35977410	     31.23959095	      5.99550167	     -6.27093683	     41.68034870	     41.68034870	     16.77338290	      0.00000000	      0.00000000	     20.60644860	    -10.03802072	      4.16797748	    115.91675713	    115.91675713	     -9.85977967	      0.00000000	      0.00000000	    -25.85091015	      7.14488901	      0.70003802	    -10.86340026	    -25.58811725	    -15.24487331	     99.35147027	     56.13882786	      0.00000000	      0.00000000	    -11.42322099	    -16.33388193	     -2.29708837	     71.94725251	     52.30910604	      0.00000000	      0.00000000
      3.24000000	    -11.16694554	     -3.77843742	      0.13634051	     -0.76802376	      0.95577794	      0.36098738	     29.05605891	      6.11384791	     -5.51963214	     41.75180274	     41.75180274	     17.02177328	      0.00000000	      0.00000000	     22.88464307	     -9.92822126	      4.26004342	    116.56894678	    116.56894678	     -9.25419081	      0.00000000	      0.00000000	    -25.94884817	      6.43436679	      1.05085621	     -8.72620247	    -25.41160072	    -14.94048745	     99.94584649	     61.36984790	      0.00000000	      0.00000000	    -12.06867390	    -15.71217913	     -3.97463215	     68.25004965	     61.59626822	      0.00000000	      0.00000000
      3.24500000	    -10.88248215	     -3.54905833	     -0.25558100	     -0.73912260	      0.95864883	      0.36230924	     26.76096570	      6.19595643	     -4.71862332	     41.62048124	     41.62048124	     16.88843402	      0.00000000	      0.00000000	     25.07586573	     -9.82795154	      4.24894647	    116.94697917	    116.94697917	     -8.60527062	      0.00000000	      0.00000000	    -26.03599719	      5.67481660	      1.49168082	     -6.84586733	    -25.18577649	    -14.96313450	    100.68355816	     68.16692460	      0.00000000	      0.00000000	    -12.70019236	    -15.21735751	     -5.72371302	     64.83917198	     71.21319708	      0.00000000	      0.00000000
      3.25000000	    -10.58625517	     -3.30606408	     -0.65767471	     -0.71009028	      0.96167123	      0.36372854	     24.39091794	      6.23637503	     -3.88266089	     41.30249455	     41.30249455	     16.36885512	      0.00000000	      0.00000000	     27.19648185	     -9.73963278	      4.16524114	    117.06961618	    117.06961618	     -7.92594777	      0.00000000	      0.00000000	    -26.09107764	      4.87875841	      2.00581825	     -5.22384334	    -24.94101777	    -15.13820999	    101.69201858	     73.91017805	      0.00000000	      0.00000000	    -13.36849871	    -14.86072611	     -7.31337989	     61.93876975	     77.73259262	      0.00000000	      0.00000000
